<svg width="141" height="52" viewBox="0 0 141 52" fill="none" xmlns="http://www.w3.org/2000/svg">
<g clip-path="url(#clip0)">
<path d="M26.8776 27.5738C25.8798 28.8329 25.0068 29.7142 24.2584 30.2808C23.0736 31.1622 21.764 31.6029 20.3296 31.6029C19.8307 31.6029 19.3319 31.5399 18.8953 31.414C15.4654 35.1283 12.0979 36.954 8.79271 36.954C5.23809 36.954 3.42959 35.2542 3.42959 31.7917C3.42959 29.4624 4.48974 26.6924 6.54768 23.4818L6.3606 23.167C4.42738 25.7481 2.99306 27.6368 2.05763 28.7699C1.80819 29.0217 1.49638 29.2106 1.05984 29.2106C0.311503 29.2106 -0.0626678 28.8329 -0.0626678 28.0774C-0.0626678 27.6368 0.0620558 27.259 0.373865 26.9443C1.12221 25.874 2.12 24.615 3.30487 23.1041C6.42296 19.075 10.6012 12.4019 15.9643 3.02175C16.5879 1.82562 17.3363 1.25903 18.0223 1.25903C18.8953 1.25903 19.6437 1.88857 20.3296 3.0847C21.0156 4.28083 21.3898 5.35104 21.3898 6.29535C21.3898 7.0508 21.2027 7.93216 20.7662 8.87647C20.4544 9.56896 19.5813 11.3317 18.2093 14.0387C16.3385 17.5012 13.7193 22.7893 10.2894 29.9031C10.0399 30.5326 9.85286 31.0992 9.85286 31.5399C9.85286 32.5472 10.3518 33.0508 11.4119 33.0508C12.9086 33.0508 14.4676 31.9806 16.2138 29.7772C15.5901 28.7699 15.2783 27.5738 15.2783 26.1888C15.2783 24.0484 15.8396 21.9079 17.0245 19.5786C18.9577 15.8014 21.1403 13.9128 23.5101 13.9128C24.9444 13.9128 25.6928 14.9201 25.6928 16.8716C25.6928 18.5084 25.1939 20.5859 24.1961 22.9782C23.323 24.9927 22.3252 26.8813 21.1403 28.5811C21.2027 28.644 21.2651 28.644 21.5145 28.644C22.3876 28.644 23.5101 27.7627 24.9444 26.0629C25.3809 25.5593 25.7551 25.3075 26.1916 25.3075C26.94 25.3075 27.3142 25.6222 27.3765 26.2518V26.4406C27.3142 26.8813 27.1894 27.259 26.8776 27.5738Z" fill="white"/>
<path d="M51.1367 27.6997C49.9518 29.2106 48.5799 30.5956 46.9585 31.9806C45.15 33.4915 42.5931 34.9395 39.3503 36.3244C31.6798 46.7748 24.82 52 18.8957 52C15.5281 52 13.9067 50.4891 13.9067 47.4673C13.9067 44.4455 15.7776 42.0533 19.5816 40.2276C21.2654 39.4092 24.4459 38.4019 29.0606 37.2058C30.1208 32.799 30.682 29.0218 30.682 25.7482C30.682 24.8668 30.495 24.4261 30.0584 24.4261H29.9337C29.5595 24.4891 28.9359 25.0557 28.0628 26.1259C27.3145 27.0702 26.5038 28.0145 25.7555 29.0218C25.4437 29.3995 25.0695 29.5254 24.6329 29.5254C23.947 29.5254 23.5728 29.1477 23.5728 28.3922C23.5728 27.9516 23.7599 27.4479 24.0717 27.0702C26.7533 23.6707 29.4348 20.0823 32.1164 16.2421C33.1142 14.8571 34.2367 14.1017 35.4839 14.1017C37.1053 14.1017 37.916 15.4867 37.916 18.1937C37.916 23.5448 37.1677 29.2106 35.671 35.1283L37.4795 34.4358C40.2858 30.155 41.6577 25.3705 41.6577 20.2712C41.6577 19.8935 41.6577 19.2639 41.5954 18.5085C41.533 17.753 41.533 17.1235 41.533 16.7458C41.533 13.661 42.6555 12.0872 44.9629 12.0872C46.8961 12.0872 47.8939 13.4721 47.8939 16.1792C47.8939 16.4939 47.8315 16.9976 47.7692 17.6271C47.2079 22.4746 45.3371 27.2591 42.219 32.0436C44.1522 30.9104 45.9607 29.5254 47.5821 27.8886C48.0186 27.4479 48.5799 26.8184 49.2659 26C49.5777 25.6223 49.8895 25.4964 50.2636 25.4964C51.012 25.4964 51.4485 25.8741 51.4485 26.6295C51.5109 27.0702 51.3862 27.385 51.1367 27.6997ZM26.1296 40.4165C24.3835 40.8571 22.8245 41.6755 21.5149 42.8087C20.0182 44.1937 19.2698 45.7046 19.2698 47.3414C19.2698 48.4116 19.7064 48.9782 20.6418 48.9782C22.2632 48.9782 23.8846 47.845 25.506 45.5787C26.6909 43.816 27.6263 41.9274 28.2499 39.8499L26.1296 40.4165Z" fill="white"/>
<path d="M71.2172 27.4479C70.0323 28.9588 68.9098 30.2808 67.8496 31.351C64.0456 35.0653 59.9921 36.9539 55.6267 36.9539C51.3861 36.9539 49.2658 35.0653 49.2658 31.2881C49.2658 30.5326 49.3282 29.8401 49.5153 29.2106C49.3906 29.2735 49.2658 29.2735 49.0787 29.2735C48.7669 29.2735 48.5175 29.2106 48.268 29.0217C48.081 28.8329 47.9562 28.581 47.9562 28.2663C47.9562 27.8256 48.1433 27.3849 48.4551 26.9442L49.5153 25.6222C52.3839 22.0968 54.6913 19.5786 56.4998 18.0048C59.5555 15.3607 62.3618 13.9757 65.0434 13.9757C68.0991 13.9757 69.6581 15.2977 69.6581 18.0048C69.6581 20.46 68.1615 22.9152 65.1681 25.4333C62.9854 27.196 60.3662 28.7069 57.3729 30.029C57.3729 30.1549 57.3729 30.4067 57.3729 30.7844C57.3729 32.2324 57.9965 32.9878 59.1814 32.9878C60.9898 32.9878 62.8607 32.1065 64.9186 30.4067C65.9788 29.5253 67.5378 27.8885 69.5958 25.6222C69.9699 25.2445 70.3441 25.1186 70.7183 25.1186C71.4043 25.1186 71.7784 25.4963 71.7784 26.2517C71.7784 26.5665 71.5913 27.0072 71.2172 27.4479ZM65.3552 17.1234C64.4821 17.1234 63.1102 18.5713 61.3017 21.4672C59.8673 23.7965 58.8695 25.7481 58.2459 27.259C59.8673 26.4406 61.4887 25.1186 63.1101 23.2299C65.0434 21.1525 65.9788 19.3898 65.9788 17.8789C65.9788 17.3752 65.7917 17.1234 65.3552 17.1234Z" fill="white"/>
<path d="M96.0995 26.3148C95.1017 27.5739 94.2287 28.4552 93.4803 29.0218C92.2954 29.9031 90.9858 30.3438 89.5515 30.3438C89.0526 30.3438 88.5537 30.2809 88.1172 30.155C84.6873 33.8693 81.3198 35.6949 78.0146 35.6949C74.46 35.6949 72.6515 33.9952 72.6515 30.5327C72.6515 28.2034 73.7116 25.4334 75.7696 22.2228L75.5825 21.908C73.6493 24.4891 72.215 26.3777 71.2795 27.5109C71.0301 27.7627 70.7183 27.9516 70.2817 27.9516C69.5334 27.9516 69.1592 27.5738 69.1592 26.8184C69.1592 26.3777 69.2839 26 69.5958 25.6852C70.3441 24.615 71.3419 23.3559 72.5268 21.845C75.6449 17.816 79.8231 11.1429 85.1862 1.76271C85.8722 0.566586 86.5582 0 87.3065 0C88.1796 0 88.9279 0.62954 89.6139 1.82567C90.2999 3.02179 90.674 4.09201 90.674 5.03632C90.674 5.79177 90.4869 6.67312 90.0504 7.61743C89.7386 8.30993 88.8655 10.0726 87.4936 12.7797C85.6227 16.2421 83.0035 21.5303 79.5736 28.6441C79.3242 29.2736 79.1371 29.8402 79.1371 30.2809C79.1371 31.2881 79.636 31.7918 80.6961 31.7918C82.1928 31.7918 83.7519 30.7215 85.498 28.5182C84.8744 27.5109 84.5626 26.3148 84.5626 24.9298C84.5626 22.7893 85.1238 20.6489 86.3087 18.3196C88.2419 14.5424 90.4246 12.6538 92.7943 12.6538C94.2287 12.6538 94.977 13.661 94.977 15.6126C94.977 17.2494 94.4781 19.3269 93.4803 21.7191C92.6072 23.7337 91.6095 25.6223 90.4246 27.322C90.4869 27.385 90.5493 27.385 90.7988 27.385C91.6718 27.385 92.7943 26.5036 94.2287 24.8039C94.6652 24.3002 95.0394 24.0484 95.4759 24.0484C96.2242 24.0484 96.5984 24.3632 96.6608 24.9927V25.1816C96.536 25.6223 96.4113 26 96.0995 26.3148Z" fill="white"/>
<path d="M120.358 26.4407C119.173 27.9516 117.801 29.3366 116.18 30.7216C114.372 32.2324 111.815 33.6804 108.572 35.0654C100.901 45.5157 94.1039 50.678 88.1172 50.678C84.7497 50.678 83.1283 49.1671 83.1283 46.1453C83.1283 43.1235 84.9991 40.7312 88.8032 38.9056C90.4869 38.0872 93.6674 37.0799 98.2822 35.8838C99.3423 31.477 99.9036 27.6998 99.9036 24.4262C99.9036 23.5448 99.7165 23.1041 99.28 23.1041H99.1552C98.7811 23.1671 98.1575 23.7337 97.2844 24.8039C96.536 25.7482 95.7253 26.6925 94.977 27.6998C94.6652 28.0775 94.291 28.2034 93.8545 28.2034C93.1685 28.2034 92.7943 27.8257 92.7943 27.0702C92.7943 26.6295 92.9814 26.1259 93.2932 25.7482C95.9748 22.3487 98.6563 18.7603 101.338 14.9201C102.336 13.5351 103.458 12.7797 104.705 12.7797C106.327 12.7797 107.138 14.1647 107.138 16.8717C107.138 22.2228 106.389 27.8886 104.893 33.8063L106.701 33.1138C109.507 28.8329 110.879 24.0484 110.879 18.9492C110.879 18.5714 110.879 17.9419 110.817 17.1864C110.755 16.431 110.755 15.8015 110.755 15.4237C110.755 12.339 111.877 10.7651 114.184 10.7651C116.118 10.7651 117.115 12.1501 117.115 14.8571C117.115 15.1719 117.053 15.6755 116.991 16.3051C116.429 21.1525 114.559 25.937 111.441 30.7216C113.374 29.5884 115.182 28.2034 116.804 26.5666C117.24 26.1259 117.801 25.4964 118.487 24.678C118.799 24.3002 119.111 24.1743 119.485 24.1743C120.234 24.1743 120.67 24.5521 120.67 25.3075C120.732 25.8111 120.608 26.1259 120.358 26.4407ZM95.3512 39.1574C93.605 39.5981 92.046 40.4165 90.7364 41.5496C89.2397 42.9346 88.4914 44.4455 88.4914 46.0823C88.4914 47.1525 88.9279 47.7191 89.8633 47.7191C91.4847 47.7191 93.1061 46.586 94.7276 44.3196C95.9124 42.5569 96.8479 40.6683 97.4715 38.5908L95.3512 39.1574Z" fill="white"/>
<path d="M140.439 26.1888C139.254 27.6997 138.131 29.0218 137.071 30.092C133.267 33.8063 129.214 35.6949 124.848 35.6949C120.608 35.6949 118.487 33.8063 118.487 30.029C118.487 29.2736 118.55 28.5811 118.737 27.9515C118.612 28.0145 118.487 28.0145 118.3 28.0145C117.988 28.0145 117.739 27.9515 117.49 27.7627C117.303 27.5738 117.178 27.322 117.178 27.0072C117.178 26.5666 117.365 26.1259 117.677 25.6852L118.737 24.3632C121.605 20.8377 123.913 18.3196 125.721 16.7457C128.777 14.1017 131.583 12.7167 134.265 12.7167C137.321 12.7167 138.88 14.0387 138.88 16.7457C138.88 19.2009 137.383 21.6561 134.39 24.1743C132.207 25.937 129.588 27.4479 126.594 28.7699C126.532 28.8959 126.532 29.1477 126.532 29.4624C126.532 30.9104 127.156 31.6658 128.341 31.6658C130.149 31.6658 132.02 30.7845 134.078 29.0847C135.138 28.2034 136.697 26.5666 138.755 24.3002C139.129 23.9225 139.503 23.7966 139.877 23.7966C140.563 23.7966 140.938 24.1743 140.938 24.9297C141 25.3075 140.813 25.7482 140.439 26.1888ZM134.577 15.8644C133.704 15.8644 132.332 17.3123 130.523 20.2082C129.089 22.5375 128.091 24.4891 127.467 26C129.089 25.1816 130.71 23.8595 132.332 21.9709C134.265 19.8934 135.2 18.1307 135.2 16.6198C135.2 16.1162 135.013 15.8644 134.577 15.8644Z" fill="white"/>
<path d="M115.931 40.6683C115.494 41.6126 114.746 43.1235 113.686 45.201C112.937 46.6489 112.563 47.5932 112.563 47.908C112.563 48.0339 112.625 48.0339 112.688 48.0339C112.937 48.0339 113.561 47.4673 114.496 46.3342C114.559 46.2083 114.683 46.2083 114.87 46.2083C115.12 46.2083 115.245 46.3342 115.245 46.586C115.245 46.7119 115.182 46.8378 115.058 47.0267C114.496 47.7821 113.935 48.4117 113.249 48.9782C112.376 49.7337 111.628 50.0485 111.004 50.0485C110.193 50.0485 109.819 49.6707 109.819 48.8523C109.819 48.7264 109.819 48.5376 109.881 48.4117C108.697 49.4819 107.699 50.0485 106.826 50.0485C106.015 50.0485 105.641 49.5448 105.641 48.6005C105.641 48.2228 105.703 47.8451 105.89 47.5303C105.579 47.5303 105.391 47.4044 105.391 47.1526C105.391 46.9637 105.454 46.8378 105.579 46.6489C106.015 46.0194 106.639 45.3269 107.449 44.5085C108.821 43.1235 110.069 42.431 111.129 42.431C111.752 42.431 112.127 42.6199 112.314 43.0606C112.75 42.1163 113.436 40.6683 114.372 38.7797C114.621 38.402 114.808 38.1501 115.058 38.1501C115.369 38.1501 115.619 38.339 115.868 38.7797C116.118 39.2204 116.242 39.5351 116.242 39.8499C116.118 40.0388 116.055 40.2906 115.931 40.6683ZM111.253 43.7531C110.817 43.7531 110.256 44.3196 109.507 45.3899C108.821 46.4601 108.447 47.2785 108.447 47.7821C108.447 47.971 108.51 48.0339 108.634 48.0339C109.071 48.0339 109.694 47.4673 110.443 46.3971C111.191 45.3269 111.565 44.5715 111.565 44.1308C111.628 43.9419 111.503 43.7531 111.253 43.7531Z" fill="white"/>
<path d="M122.104 47.0266C121.543 47.7821 120.857 48.2228 119.984 48.2228C119.859 48.2228 119.672 48.2228 119.485 48.1598C118.487 49.4189 117.365 49.9855 116.118 49.9855C115.556 49.9855 115.12 49.7966 114.808 49.4189C114.496 49.0412 114.372 48.6005 114.372 48.0339C114.372 47.845 114.372 47.6562 114.434 47.4673C114.434 47.4673 114.372 47.5303 114.309 47.5303C114.06 47.5303 113.935 47.4044 113.935 47.1525C113.935 47.0266 113.997 46.9007 114.06 46.7748C114.496 46.2082 115.12 45.4528 116.055 44.3826C117.303 42.9976 118.487 42.368 119.672 42.368C120.732 42.368 121.231 42.9346 121.231 44.0678C121.231 45.0121 120.857 46.0194 120.234 47.1525C120.296 47.1525 120.358 47.2155 120.483 47.2155C120.795 47.2155 121.169 46.9637 121.605 46.523C121.668 46.4601 121.793 46.3971 121.917 46.3971C122.167 46.3971 122.354 46.523 122.354 46.7748C122.229 46.8378 122.229 46.9637 122.104 47.0266ZM119.797 43.5642C119.236 43.5642 118.612 44.3826 117.801 46.0823C117.365 47.0896 117.115 47.7821 117.115 48.0969C117.115 48.3487 117.24 48.5375 117.49 48.5375C117.801 48.5375 118.176 48.2228 118.612 47.5932C118.363 47.3414 118.3 47.0266 118.3 46.7119C118.3 46.1453 118.55 45.8305 118.986 45.8305C119.173 45.8305 119.36 45.8935 119.485 46.0823C119.922 45.201 120.109 44.5714 120.109 44.0678C120.109 43.6901 119.984 43.5642 119.797 43.5642Z" fill="white"/>
<path d="M128.278 40.6682C127.592 42.2421 126.844 43.753 126.096 45.138C125.347 46.5859 124.973 47.4673 124.973 47.845C124.973 47.9079 125.035 47.9709 125.098 47.9709C125.347 47.9709 125.908 47.4043 126.782 46.3341C126.906 46.1452 127.031 46.0823 127.218 46.0823C127.468 46.0823 127.592 46.2082 127.592 46.46C127.592 46.5859 127.53 46.7748 127.405 46.9007C126.719 47.782 126.096 48.4745 125.534 48.9152C125.347 49.1041 125.035 49.2929 124.599 49.5447C124.225 49.7336 123.788 49.8595 123.352 49.8595C122.603 49.8595 122.167 49.4818 122.167 48.6634C122.167 47.845 122.666 46.6489 123.601 45.2009L123.539 45.138C123.165 45.6416 122.666 46.3341 121.917 47.2784C121.855 47.3414 121.793 47.4043 121.668 47.4043C121.418 47.4043 121.231 47.2784 121.231 47.0266C121.231 46.9007 121.294 46.7118 121.418 46.5859L122.292 45.5157C123.663 43.8789 125.098 41.6125 126.719 38.5908C126.906 38.213 127.156 38.0242 127.405 38.0242C127.717 38.0242 127.966 38.213 128.154 38.6537C128.403 39.0944 128.528 39.4092 128.528 39.7239C128.528 40.0387 128.465 40.3535 128.278 40.6682Z" fill="white"/>
<path d="M134.514 47.0266C133.953 47.7821 133.267 48.2228 132.394 48.2228C132.269 48.2228 132.082 48.2228 131.895 48.1598C130.897 49.4189 129.775 49.9855 128.528 49.9855C127.966 49.9855 127.53 49.7966 127.218 49.4189C126.906 49.0412 126.782 48.6005 126.782 48.0339C126.782 47.845 126.782 47.6562 126.844 47.4673C126.844 47.4673 126.782 47.5303 126.719 47.5303C126.47 47.5303 126.345 47.4044 126.345 47.1525C126.345 47.0266 126.407 46.9007 126.47 46.7748C126.906 46.2082 127.53 45.4528 128.465 44.3826C129.713 42.9976 130.897 42.368 132.082 42.368C133.142 42.368 133.641 42.9346 133.641 44.0678C133.641 45.0121 133.267 46.0194 132.644 47.1525C132.706 47.1525 132.768 47.2155 132.893 47.2155C133.205 47.2155 133.579 46.9637 134.015 46.523C134.078 46.4601 134.203 46.3971 134.327 46.3971C134.577 46.3971 134.764 46.523 134.764 46.7748C134.639 46.8378 134.577 46.9637 134.514 47.0266ZM132.145 43.5642C131.583 43.5642 130.96 44.3826 130.149 46.0823C129.713 47.0896 129.463 47.7821 129.463 48.0969C129.463 48.3487 129.588 48.5375 129.837 48.5375C130.149 48.5375 130.523 48.2228 130.96 47.5932C130.71 47.3414 130.648 47.0266 130.648 46.7119C130.648 46.1453 130.897 45.8305 131.334 45.8305C131.521 45.8305 131.708 45.8935 131.833 46.0823C132.269 45.201 132.456 44.5714 132.456 44.0678C132.456 43.6901 132.394 43.5642 132.145 43.5642Z" fill="white"/>
<path d="M140.813 46.9636C139.878 48.2227 138.942 49.167 138.007 49.6706C137.632 49.8595 137.258 49.9854 136.822 49.9854C135.886 49.9854 135.45 49.5447 135.45 48.6633C135.45 48.0338 135.824 47.2154 136.635 46.1452C137.445 45.075 137.82 44.4454 137.82 44.3195C137.82 44.1936 137.757 44.1307 137.57 44.1307C137.508 44.1307 137.445 44.1307 137.321 44.1307C137.196 44.1307 137.134 44.1307 137.071 44.1307C136.946 44.1307 136.884 44.1307 136.822 44.1307C136.448 44.5713 135.949 45.2638 135.263 46.1452C134.951 46.5229 134.639 46.9006 134.327 47.3413C134.203 47.4672 134.078 47.5302 133.953 47.5302C133.704 47.5302 133.579 47.4043 133.579 47.0895C133.579 46.9636 133.641 46.8377 133.704 46.7118C134.203 46.0822 134.951 45.1379 135.949 43.8788C135.637 43.7529 135.512 43.4382 135.512 43.0604C135.512 42.6827 135.699 42.242 136.011 41.8643C136.323 41.4866 136.697 41.2977 137.071 41.2977C137.508 41.2977 137.757 41.5495 137.757 42.0532C137.757 42.4309 137.632 42.7457 137.445 43.0604C137.57 43.0604 137.632 43.1234 137.632 43.1234C137.882 43.1234 138.256 42.9975 138.755 42.7457C139.254 42.4939 139.566 42.368 139.878 42.368C140.065 42.368 140.252 42.4309 140.376 42.6198C140.501 42.7457 140.563 42.9345 140.563 43.1863C140.563 43.4382 140.252 44.1307 139.566 45.2638C138.88 46.46 138.443 47.2784 138.381 47.6561C138.381 47.719 138.318 47.8449 138.318 47.9079C138.318 48.0338 138.381 48.0968 138.506 48.0968C138.755 48.0968 139.316 47.5302 140.314 46.397C140.376 46.334 140.501 46.2711 140.626 46.2711C140.875 46.2711 141 46.397 141 46.6488C141 46.7118 140.938 46.8377 140.813 46.9636Z" fill="white"/>
</g>
<defs>
<clipPath id="clip0">
<rect width="141" height="52" fill="white"/>
</clipPath>
</defs>
</svg>
