<?xml version="1.0" encoding="utf-8"?>
<!-- Generator: Adobe Illustrator 24.0.3, SVG Export Plug-In . SVG Version: 6.00 Build 0)  -->
<svg version="1.1" id="Capa_1" xmlns="http://www.w3.org/2000/svg" xmlns:xlink="http://www.w3.org/1999/xlink" x="0px" y="0px"
	 width="82.2px" height="70.9px" viewBox="0 0 82.2 70.9" style="enable-background:new 0 0 82.2 70.9;" xml:space="preserve">
<style type="text/css">
	.st0{clip-path:url(#SVGID_2_);}
	.st1{fill:#A8DFF3;}
	.st2{fill:#003A63;}
	.st3{fill:#E63E25;}
	.st4{fill:#216C88;}
	.st5{fill:#A8DFF2;}
	.st6{fill:#C8B493;}
	.st7{fill:#AD9B80;}
</style>
<g>
	<g>
		<defs>
			<rect id="SVGID_1_" y="38.5" width="82" height="31"/>
		</defs>
		<clipPath id="SVGID_2_">
			<use xlink:href="#SVGID_1_"  style="overflow:visible;"/>
		</clipPath>
		<g class="st0">
			<path class="st1" d="M15.6,55c-0.6,0.8-1.1,1.3-1.5,1.6c-0.7,0.5-1.5,0.8-2.3,0.8c-0.3,0-0.6,0-0.8-0.1c-2,2.2-4,3.3-5.9,3.3
				c-2.1,0-3.1-1-3.1-3.1c0-1.4,0.6-3,1.8-5l-0.1-0.2c-1.1,1.5-2,2.7-2.5,3.3c-0.1,0.2-0.3,0.3-0.6,0.3c-0.4,0-0.7-0.2-0.7-0.7
				C0,55,0,54.8,0.2,54.6c0.4-0.6,1-1.4,1.7-2.3c1.8-2.4,4.2-6.4,7.4-12c0.4-0.7,0.8-1.1,1.2-1.1c0.5,0,0.9,0.4,1.3,1.1
				c0.4,0.7,0.6,1.4,0.6,1.9c0,0.5-0.1,1-0.4,1.5c-0.2,0.4-0.7,1.5-1.5,3.1C9.5,49,8,52.1,6,56.4c-0.1,0.4-0.3,0.7-0.3,1
				c0,0.6,0.3,0.9,0.9,0.9c0.9,0,1.8-0.6,2.8-2c-0.4-0.6-0.5-1.3-0.5-2.1c0-1.3,0.3-2.6,1-3.9c1.1-2.3,2.4-3.4,3.8-3.4
				c0.8,0,1.3,0.6,1.3,1.8c0,1-0.3,2.2-0.9,3.6c-0.5,1.2-1.1,2.3-1.8,3.3c0,0,0.1,0,0.2,0c0.5,0,1.2-0.5,2-1.5
				c0.3-0.3,0.5-0.5,0.7-0.5c0.4,0,0.7,0.2,0.7,0.6v0.1C15.9,54.6,15.8,54.8,15.6,55z"/>
			<path class="st1" d="M29.7,55c-0.7,0.9-1.5,1.7-2.4,2.6c-1.1,0.9-2.5,1.8-4.4,2.6c-4.5,6.2-8.5,9.3-11.9,9.3
				c-2,0-2.9-0.9-2.9-2.7c0-1.8,1.1-3.2,3.3-4.3c1-0.5,2.8-1.1,5.5-1.8c0.6-2.6,0.9-4.9,0.9-6.8c0-0.5-0.1-0.8-0.4-0.8h-0.1
				c-0.2,0-0.6,0.4-1.1,1c-0.4,0.6-0.9,1.1-1.3,1.7c-0.2,0.2-0.4,0.3-0.7,0.3c-0.4,0-0.6-0.2-0.6-0.7c0-0.3,0.1-0.6,0.3-0.8
				c1.6-2,3.1-4.2,4.7-6.5c0.6-0.8,1.2-1.3,2-1.3c0.9,0,1.4,0.8,1.4,2.4c0,3.2-0.4,6.6-1.3,10.1l1.1-0.4c1.6-2.6,2.4-5.4,2.4-8.4
				c0-0.2,0-0.6,0-1.1c0-0.5,0-0.8,0-1.1c0-1.8,0.7-2.8,2-2.8c1.1,0,1.7,0.8,1.7,2.4c0,0.2,0,0.5-0.1,0.9c-0.3,2.9-1.4,5.7-3.2,8.6
				c1.1-0.7,2.2-1.5,3.1-2.5c0.3-0.3,0.6-0.6,1-1.1c0.2-0.2,0.4-0.3,0.6-0.3c0.4,0,0.7,0.2,0.7,0.7C30,54.7,29.9,54.9,29.7,55z
				 M15.2,62.6c-1,0.3-1.9,0.8-2.7,1.4c-0.9,0.8-1.3,1.7-1.3,2.7c0,0.6,0.3,1,0.8,1c0.9,0,1.9-0.7,2.8-2c0.7-1.1,1.2-2.2,1.6-3.4
				L15.2,62.6z"/>
			<path class="st1" d="M41.4,54.9c-0.7,0.9-1.3,1.7-2,2.3c-2.2,2.2-4.6,3.3-7.1,3.3c-2.5,0-3.7-1.1-3.7-3.4c0-0.5,0-0.9,0.1-1.2
				c-0.1,0-0.1,0-0.3,0c-0.2,0-0.3,0-0.5-0.2c-0.1-0.1-0.2-0.3-0.2-0.5c0-0.3,0.1-0.5,0.3-0.8l0.6-0.8c1.7-2.1,3-3.6,4.1-4.5
				c1.8-1.6,3.4-2.4,5-2.4c1.8,0,2.7,0.8,2.7,2.4c0,1.5-0.9,2.9-2.6,4.4c-1.3,1.1-2.8,2-4.5,2.7c0,0.1,0,0.2,0,0.5
				c0,0.9,0.4,1.3,1.1,1.3c1.1,0,2.1-0.5,3.3-1.5c0.6-0.5,1.5-1.5,2.7-2.9c0.2-0.2,0.4-0.3,0.7-0.3c0.4,0,0.6,0.2,0.6,0.7
				C41.7,54.4,41.6,54.6,41.4,54.9z M38,48.7c-0.5,0-1.3,0.9-2.4,2.6c-0.8,1.4-1.4,2.6-1.8,3.5c0.9-0.5,1.9-1.3,2.8-2.4
				c1.1-1.2,1.7-2.3,1.7-3.2C38.4,48.9,38.3,48.7,38,48.7z"/>
			<path class="st2" d="M55.9,54.2c-0.6,0.8-1.1,1.3-1.5,1.6c-0.7,0.5-1.5,0.8-2.3,0.8c-0.3,0-0.6,0-0.8-0.1c-2,2.2-4,3.3-5.9,3.3
				c-2.1,0-3.1-1-3.1-3.1c0-1.4,0.6-3,1.8-5L44,51.6c-1.1,1.5-2,2.7-2.5,3.3c-0.1,0.2-0.3,0.3-0.6,0.3c-0.4,0-0.7-0.2-0.7-0.7
				c0-0.3,0.1-0.5,0.3-0.7c0.4-0.6,1-1.4,1.7-2.3c1.8-2.4,4.2-6.4,7.4-12c0.4-0.7,0.8-1.1,1.2-1.1c0.5,0,0.9,0.4,1.3,1.1
				c0.4,0.7,0.6,1.4,0.6,1.9c0,0.5-0.1,1-0.4,1.5c-0.2,0.4-0.7,1.5-1.5,3.1c-1.1,2.1-2.6,5.2-4.6,9.5c-0.1,0.4-0.3,0.7-0.3,1
				c0,0.6,0.3,0.9,0.9,0.9c0.9,0,1.8-0.6,2.8-2c-0.4-0.6-0.5-1.3-0.5-2.1c0-1.3,0.3-2.6,1-3.9c1.1-2.3,2.4-3.4,3.8-3.4
				c0.8,0,1.3,0.6,1.3,1.8c0,1-0.3,2.2-0.9,3.6c-0.5,1.2-1.1,2.3-1.8,3.3c0,0,0.1,0,0.2,0c0.5,0,1.2-0.5,2-1.5
				c0.3-0.3,0.5-0.5,0.7-0.5c0.4,0,0.7,0.2,0.7,0.6v0.1C56.1,53.8,56.1,54,55.9,54.2z"/>
			<path class="st2" d="M70,54.3c-0.7,0.9-1.5,1.7-2.4,2.6c-1.1,0.9-2.5,1.8-4.4,2.6c-4.5,6.2-8.4,9.3-11.9,9.3
				c-2,0-2.9-0.9-2.9-2.7c0-1.8,1.1-3.2,3.3-4.3c1-0.5,2.8-1.1,5.5-1.8c0.6-2.6,0.9-4.9,0.9-6.8c0-0.5-0.1-0.8-0.4-0.8h-0.1
				c-0.2,0-0.6,0.4-1.1,1c-0.4,0.6-0.9,1.1-1.3,1.7c-0.2,0.2-0.4,0.3-0.7,0.3c-0.4,0-0.6-0.2-0.6-0.7c0-0.3,0.1-0.6,0.3-0.8
				c1.6-2,3.1-4.2,4.7-6.5c0.6-0.8,1.2-1.3,2-1.3c0.9,0,1.4,0.8,1.4,2.4c0,3.2-0.4,6.6-1.3,10.1l1.1-0.4c1.6-2.6,2.4-5.4,2.4-8.4
				c0-0.2,0-0.6,0-1.1c0-0.5,0-0.8,0-1.1c0-1.8,0.7-2.8,2-2.8c1.1,0,1.7,0.8,1.7,2.4c0,0.2,0,0.5-0.1,0.9c-0.3,2.9-1.4,5.7-3.2,8.6
				c1.1-0.7,2.2-1.5,3.1-2.5c0.3-0.3,0.6-0.6,1-1.1c0.2-0.2,0.4-0.3,0.6-0.3c0.4,0,0.7,0.2,0.7,0.7C70.2,53.9,70.1,54.1,70,54.3z
				 M55.5,61.9c-1,0.3-1.9,0.8-2.7,1.4c-0.9,0.8-1.3,1.7-1.3,2.7c0,0.6,0.3,1,0.8,1c0.9,0,1.9-0.7,2.8-2c0.7-1.1,1.2-2.2,1.6-3.4
				L55.5,61.9z"/>
			<path class="st2" d="M81.7,54.1c-0.7,0.9-1.3,1.7-2,2.3c-2.2,2.2-4.6,3.3-7.1,3.3c-2.5,0-3.7-1.1-3.7-3.4c0-0.5,0-0.9,0.1-1.2
				c-0.1,0-0.1,0-0.3,0c-0.2,0-0.3,0-0.5-0.2c-0.1-0.1-0.2-0.3-0.2-0.5c0-0.3,0.1-0.5,0.3-0.8l0.6-0.8c1.7-2.1,3-3.6,4.1-4.5
				c1.8-1.6,3.4-2.4,5-2.4c1.8,0,2.7,0.8,2.7,2.4c0,1.5-0.9,2.9-2.6,4.4c-1.3,1.1-2.8,2-4.5,2.7c0,0.1,0,0.2,0,0.4
				c0,0.9,0.4,1.3,1.1,1.3c1.1,0,2.1-0.5,3.3-1.5c0.6-0.5,1.5-1.5,2.7-2.9c0.2-0.2,0.4-0.3,0.7-0.3c0.4,0,0.6,0.2,0.6,0.7
				C82,53.6,81.9,53.9,81.7,54.1z M78.3,48c-0.5,0-1.3,0.9-2.4,2.6c-0.8,1.4-1.4,2.6-1.8,3.5c0.9-0.5,1.9-1.3,2.8-2.4
				c1.1-1.2,1.7-2.3,1.7-3.2C78.6,48.1,78.5,48,78.3,48z"/>
			<path class="st3" d="M67.4,62.8c-0.3,0.6-0.7,1.5-1.3,2.7c-0.4,0.9-0.7,1.4-0.7,1.6c0,0.1,0,0.1,0.1,0.1c0.1,0,0.5-0.3,1.1-1
				c0-0.1,0.1-0.1,0.2-0.1c0.1,0,0.2,0.1,0.2,0.2c0,0.1,0,0.2-0.1,0.3c-0.3,0.5-0.7,0.8-1.1,1.2c-0.5,0.5-0.9,0.6-1.3,0.6
				c-0.5,0-0.7-0.2-0.7-0.7c0-0.1,0-0.2,0-0.3c-0.7,0.6-1.3,1-1.8,1c-0.5,0-0.7-0.3-0.7-0.9c0-0.2,0-0.5,0.1-0.6
				c-0.2,0-0.3-0.1-0.3-0.2c0-0.1,0-0.2,0.1-0.3c0.3-0.4,0.6-0.8,1.1-1.3c0.8-0.8,1.5-1.2,2.1-1.2c0.4,0,0.6,0.1,0.7,0.4
				c0.3-0.6,0.7-1.4,1.2-2.6c0.1-0.2,0.3-0.4,0.4-0.4c0.2,0,0.3,0.1,0.5,0.4c0.1,0.3,0.2,0.5,0.2,0.6C67.5,62.4,67.5,62.6,67.4,62.8
				z M64.7,64.6c-0.3,0-0.6,0.3-1,1c-0.4,0.6-0.6,1.1-0.6,1.4c0,0.1,0,0.2,0.1,0.2c0.3,0,0.6-0.3,1.1-1c0.4-0.6,0.7-1.1,0.7-1.4
				C64.9,64.7,64.8,64.6,64.7,64.6z"/>
			<path class="st3" d="M71,66.6c-0.3,0.5-0.7,0.7-1.2,0.7c-0.1,0-0.2,0-0.3,0c-0.6,0.8-1.2,1.1-2,1.1c-0.3,0-0.6-0.1-0.8-0.3
				c-0.2-0.2-0.3-0.5-0.3-0.8c0-0.1,0-0.2,0-0.3c0,0,0,0-0.1,0c-0.1,0-0.2-0.1-0.2-0.2c0-0.1,0-0.2,0.1-0.2c0.3-0.3,0.6-0.8,1.2-1.4
				c0.7-0.8,1.4-1.2,2.1-1.2c0.6,0,0.9,0.3,0.9,1c0,0.6-0.2,1.2-0.6,1.8c0,0,0.1,0,0.1,0c0.2,0,0.4-0.2,0.7-0.4c0,0,0.1-0.1,0.2-0.1
				c0.1,0,0.3,0.1,0.3,0.2C71.1,66.5,71.1,66.5,71,66.6z M69.7,64.5c-0.3,0-0.7,0.5-1.2,1.5c-0.3,0.6-0.4,1-0.4,1.2
				c0,0.2,0.1,0.3,0.2,0.3c0.2,0,0.4-0.2,0.7-0.6c-0.1-0.2-0.2-0.3-0.2-0.5c0-0.3,0.1-0.5,0.4-0.5c0.1,0,0.2,0,0.3,0.2
				c0.3-0.5,0.4-0.9,0.4-1.2C69.9,64.6,69.8,64.5,69.7,64.5z"/>
			<path class="st3" d="M74.6,62.8c-0.4,0.9-0.8,1.8-1.3,2.7c-0.4,0.9-0.7,1.4-0.7,1.6c0,0,0,0.1,0.1,0.1c0.1,0,0.5-0.3,1-1
				C73.8,66,73.9,66,74,66c0.1,0,0.2,0.1,0.2,0.2c0,0.1,0,0.2-0.1,0.3c-0.4,0.5-0.8,0.9-1.1,1.2c-0.1,0.1-0.3,0.2-0.5,0.4
				c-0.2,0.1-0.5,0.2-0.7,0.2c-0.4,0-0.7-0.2-0.7-0.7s0.3-1.2,0.8-2.1l0,0c-0.2,0.3-0.5,0.7-0.9,1.3c0,0-0.1,0.1-0.1,0.1
				c-0.1,0-0.3-0.1-0.3-0.2c0-0.1,0-0.2,0.1-0.3l0.5-0.6c0.8-1,1.6-2.3,2.6-4.1c0.1-0.2,0.3-0.3,0.4-0.3c0.2,0,0.3,0.1,0.4,0.4
				c0.1,0.3,0.2,0.5,0.2,0.6C74.7,62.4,74.7,62.6,74.6,62.8z"/>
			<path class="st3" d="M78.2,66.6c-0.3,0.5-0.7,0.7-1.2,0.7c-0.1,0-0.2,0-0.3,0c-0.6,0.8-1.2,1.1-2,1.1c-0.3,0-0.6-0.1-0.8-0.3
				c-0.2-0.2-0.3-0.5-0.3-0.8c0-0.1,0-0.2,0-0.3c0,0,0,0-0.1,0c-0.1,0-0.2-0.1-0.2-0.2c0-0.1,0-0.2,0.1-0.2c0.3-0.3,0.6-0.8,1.2-1.4
				c0.7-0.8,1.4-1.2,2.1-1.2c0.6,0,0.9,0.3,0.9,1c0,0.6-0.2,1.2-0.6,1.8c0,0,0.1,0,0.1,0c0.2,0,0.4-0.2,0.7-0.4c0,0,0.1-0.1,0.2-0.1
				c0.1,0,0.3,0.1,0.3,0.2C78.3,66.5,78.3,66.5,78.2,66.6z M76.9,64.5c-0.3,0-0.7,0.5-1.2,1.5c-0.3,0.6-0.4,1-0.4,1.2
				c0,0.2,0.1,0.3,0.2,0.3c0.2,0,0.4-0.2,0.7-0.6C76,66.8,76,66.6,76,66.4c0-0.3,0.1-0.5,0.4-0.5c0.1,0,0.2,0,0.3,0.2
				c0.3-0.5,0.4-0.9,0.4-1.2C77,64.6,77,64.5,76.9,64.5z"/>
			<path class="st3" d="M81.9,66.5c-0.5,0.8-1.1,1.3-1.6,1.6c-0.2,0.1-0.4,0.2-0.7,0.2c-0.5,0-0.8-0.3-0.8-0.8
				c0-0.4,0.2-0.9,0.7-1.5c0.5-0.6,0.7-1,0.7-1.1c0-0.1,0-0.1-0.1-0.1c0,0-0.1,0-0.1,0c-0.1,0-0.1,0-0.1,0c-0.1,0-0.1,0-0.1,0
				c-0.2,0.3-0.5,0.7-0.9,1.2c-0.2,0.2-0.4,0.5-0.5,0.7c-0.1,0.1-0.1,0.1-0.2,0.1c-0.1,0-0.2-0.1-0.2-0.3c0-0.1,0-0.2,0.1-0.2
				c0.3-0.4,0.7-0.9,1.3-1.7c-0.2-0.1-0.3-0.3-0.3-0.5c0-0.2,0.1-0.5,0.3-0.7c0.2-0.2,0.4-0.3,0.6-0.3c0.3,0,0.4,0.2,0.4,0.5
				c0,0.2-0.1,0.4-0.2,0.6c0.1,0,0.1,0,0.1,0c0.1,0,0.4-0.1,0.7-0.2c0.3-0.2,0.5-0.2,0.7-0.2c0.1,0,0.2,0,0.3,0.2
				c0.1,0.1,0.1,0.2,0.1,0.3s-0.2,0.6-0.6,1.2c-0.4,0.7-0.7,1.2-0.7,1.4c0,0,0,0.1,0,0.2c0,0.1,0,0.1,0.1,0.1c0.1,0,0.5-0.3,1.1-1
				c0,0,0.1-0.1,0.2-0.1c0.1,0,0.2,0.1,0.2,0.2C82,66.4,82,66.5,81.9,66.5z"/>
		</g>
	</g>
</g>
<g>
	<path class="st4" d="M41.5,25.7l0.1,0.1c0.5-0.8-0.4,2.1-2.9,4.8c-0.1,0.1-0.2-0.1-0.2-0.1S40.9,27.8,41.5,25.7z"/>
	<path class="st4" d="M38.6,26.7l0.2,0.1c0,0-1.2,2.1-2.9,2.9c-0.1,0-0.1-0.2-0.1-0.2S37.6,28.6,38.6,26.7z"/>
	<path class="st4" d="M38.3,16.1l-2-0.4l-2.2-4.1c0,0,1.3-0.6,3.4,0.8L38.3,16.1z"/>
	<path class="st5" d="M25.1,20.9c0,0,6.8,7.3,13,6.1c6.1-1.2,8.9-4.6,10.3-12.6c0,0-2-12.3-7.9-9.5c-0.2-0.1-2,1.8-2.6,4.7
		c-0.6,2.9-0.1,5.8-0.1,5.8s0.4,0.4-2.2,1.8C33,18.5,31.6,19.9,25.1,20.9z"/>
	<path class="st4" d="M25,21c1.2,1.3,2.6,2.4,4.1,3.4c2.5,1.7,5.5,3.2,8.6,2.7c2.6-0.4,5.1-1.4,6.9-3.3c2-2.1,3-5.1,3.6-7.9
		c0.2-0.7,0.4-1.4,0.2-2.1c-0.1-0.7-0.3-1.4-0.5-2.1c-0.5-2-1.3-4-2.6-5.6c-0.6-0.7-1.3-1.3-2.1-1.7c-0.9-0.3-1.8-0.2-2.7,0.2
		C39.6,5,39.1,6,38.7,6.8c-1,1.8-1.3,3.8-1.3,5.8c0,0.8,0,1.6,0.1,2.4c0,0.1,0.1,0.5,0.1,0.5c0,0.2-0.3,0.5-0.5,0.6
		c-0.6,0.5-1.3,0.8-2,1.2c-0.9,0.5-1.8,1-2.7,1.5c-1.4,0.6-2.8,1.1-4.2,1.4c-1,0.2-2.1,0.4-3.1,0.6c-0.2,0-0.1,0.3,0.1,0.3
		c2.9-0.5,5.8-1.1,8.4-2.6c1-0.6,2.1-1.1,3.1-1.7c0.4-0.3,1.3-0.7,1.3-1.3c0-0.1,0,0,0-0.1c0-0.2,0-0.4-0.1-0.6
		c-0.1-0.8-0.1-1.7-0.1-2.5c0-2,0.4-4,1.5-5.8c0.3-0.5,0.6-1,1-1.3c0.3-0.2,0.7-0.3,1-0.4c0.9-0.2,1.8,0,2.6,0.5
		c1.6,1.1,2.5,3.3,3.2,5.1c0.3,0.8,0.5,1.7,0.8,2.6c0.1,0.3,0.1,0.6,0.2,0.9c0,0.1,0,0.4,0.1,0.5c0,0,0,0.1,0-0.1
		c0,0.4-0.2,0.9-0.3,1.2c-0.2,0.8-0.4,1.7-0.6,2.5c-0.4,1.4-0.9,2.8-1.7,4c-1.4,2.2-3.4,3.7-5.9,4.4c-1.5,0.4-3,0.7-4.5,0.4
		c-1.5-0.3-2.9-0.8-4.3-1.6c-2-1.1-3.9-2.6-5.5-4.2c-0.1-0.1-0.2-0.2-0.3-0.3C25,20.6,24.8,20.8,25,21z"/>
	<path class="st5" d="M42.3,18.9c0,0-0.3-2.2-4-3.2c-3.7-1-6.7-1.3-9.5,1c-0.1,0,0.9,0.7,0.9,0.7s2.5,1.3,4.7,5.5"/>
	<path class="st4" d="M42.4,18.9c-0.2-1.1-1.3-2-2.2-2.5c-1.2-0.7-2.6-1-4-1.2c-1.3-0.2-2.5-0.4-3.8-0.2c-1.4,0.2-2.6,0.9-3.7,1.7
		c-0.1,0,0,0.2,0,0.2c0.5,0.5,1.3,0.9,1.8,1.3c1.6,1.3,2.9,3,3.8,4.8c0.1,0.2,0.3,0,0.3-0.1c-1-1.8-2.2-3.5-3.8-4.8
		c-0.6-0.5-1.4-0.8-1.9-1.4c0,0.1,0,0.1,0,0.2c1-0.8,2-1.3,3.2-1.6c1.2-0.2,2.5-0.2,3.7,0c2.1,0.4,4.7,0.9,5.9,2.7
		c0.2,0.3,0.4,0.6,0.4,0.9C42.1,19.1,42.4,19,42.4,18.9z"/>
	<path class="st6" d="M40.1,5.2c0,0,6.3-6,16.9-2.7c0.2,0.1-4.5,6.4-4.5,6.4l-4.1,5.5"/>
	<path class="st7" d="M40.2,5.3c0.9-0.9,2.1-1.6,3.3-2.1c2.9-1.4,6.2-1.8,9.4-1.5c1.1,0.1,2.2,0.3,3.2,0.6c0.1,0,0.3,0.1,0.5,0.1
		c0,0,0.3,0.1,0.2,0c0,0,0,0.1,0,0.1c-0.1,0.1-0.1,0.2-0.2,0.4c-0.6,0.9-1.2,1.8-1.9,2.6C53.8,6.8,52.9,8,52,9.2
		c-1.3,1.7-2.5,3.4-3.8,5.1c-0.1,0.2,0.1,0.3,0.3,0.1c2.1-2.9,4.3-5.7,6.4-8.6c0.7-0.9,1.3-1.8,2-2.8c0.1-0.1,0.3-0.4,0.3-0.6
		c0-0.2-0.6-0.3-0.8-0.3c-0.6-0.2-1.2-0.3-1.8-0.4c-3.4-0.7-7-0.5-10.2,0.8c-1.5,0.6-3.1,1.4-4.3,2.6C39.9,5.2,40.1,5.4,40.2,5.3z"
		/>
	<path class="st4" d="M35.9,29.6l-0.2-0.1l-1.9,3.1l0.7,1.3l1.7-4L35.9,29.6z"/>
	<path class="st4" d="M37.5,34.5l1.2,0.6c0,0,0.4-2,0.3-4.6l-0.6-0.2C38.4,30.3,38,34.3,37.5,34.5z"/>
	<path class="st4" d="M39.4,11.6c0.8,0.9,2.2,1.4,3.1,0.4c1.1-1.1,0.9-2.8-0.1-3.8c-0.1-0.1-0.3,0.1-0.2,0.2c0.9,1,1.1,2.4,0.1,3.4
		c-0.9,0.9-2,0.4-2.7-0.4C39.5,11.2,39.3,11.4,39.4,11.6z"/>
</g>
</svg>
