<svg viewBox="0 0 24 24" id="img" xmlns="http://www.w3.org/2000/svg">
<path
    class="icon"
    d="M21.6 0H2.4C1.07813 0 0 1.07813 0 2.4V21.6C0 22.9219 1.07813 24 2.4 24H21.6C22.9219 24 24 22.9219 24 21.6V2.4C24 1.07813 22.9219 0 21.6 0ZM18.7219 8.16094C18.7219 8.27813 18.7219 8.4 18.7219 8.63906C18.7219 13.2 15.2391 18.4781 8.87813 18.4781C6.96094 18.4781 5.16094 17.8781 3.6 16.9219C3.83906 16.9219 4.2 16.9219 4.43906 16.9219C6 16.9219 7.56094 16.3219 8.76094 15.4781C7.2 15.4781 6 14.4 5.52188 13.0781C5.76094 13.0781 6 13.2 6.12188 13.2C6.47813 13.2 6.72188 13.2 7.07813 13.0781C5.52188 12.7219 4.32188 11.4 4.32188 9.72188C4.8 9.96094 5.27813 10.0781 5.87813 10.2C4.92188 9.36094 4.32188 8.4 4.32188 7.2C4.32188 6.6 4.43906 6 4.8 5.52188C6.47813 7.56094 9 9 11.8781 9.12188C11.8781 8.87813 11.7609 8.63906 11.7609 8.27813C11.7609 6.36094 13.3219 4.8 15.2391 4.8C16.2 4.8 17.1609 5.16094 17.7609 5.87813C18.6 5.76094 19.3219 5.4 19.9219 5.03906C19.6781 5.87813 19.0781 6.47813 18.3609 6.96094C19.0781 6.83906 19.6781 6.72188 20.4 6.36094C19.9219 7.07813 19.3219 7.67813 18.7219 8.16094Z"
    fill="currentColor"
  />
</svg>
